<svg width="18" height="18" viewBox="0 0 18 18" fill="none" xmlns="http://www.w3.org/2000/svg">
    <path fill-rule="evenodd" clip-rule="evenodd" d="M15.75 2.625H2.25C1.00736 2.625 0 3.63236 0 4.875V13.125C0 14.3676 1.00736 15.375 2.25 15.375H15.75C16.9926 15.375 18 14.3676 18 13.125V4.875C18 3.63236 16.9926 2.625 15.75 2.625ZM2.25 4.125H15.75C16.1642 4.125 16.5 4.46079 16.5 4.875V5.625C16.5 5.83211 16.3321 6 16.125 6H1.875C1.66789 6 1.5 5.83211 1.5 5.625V4.875C1.5 4.46079 1.83579 4.125 2.25 4.125ZM2.25 13.875H15.75C16.1642 13.875 16.5 13.5392 16.5 13.125V8.625C16.5 8.41789 16.3321 8.25 16.125 8.25H1.875C1.66789 8.25 1.5 8.41789 1.5 8.625V13.125C1.5 13.5392 1.83579 13.875 2.25 13.875Z" fill="black"/>
    <path d="M6 10.875H3.75C3.33579 10.875 3 11.2108 3 11.625C3 12.0392 3.33579 12.375 3.75 12.375H6C6.41421 12.375 6.75 12.0392 6.75 11.625C6.75 11.2108 6.41421 10.875 6 10.875Z" fill="black"/>
</svg>
