<svg width="269" height="512" viewBox="0 0 269 512" fill="none" xmlns="http://www.w3.org/2000/svg">
    <path d="M148.844 53.9805L218.622 1.04558C219.413 0.445239 220.525 0.516657 221.233 1.21329L250.101 29.615C250.65 30.1557 250.84 30.9641 250.589 31.6929L203.037 169.544C202.461 171.213 204.172 172.755 205.772 172.01L243.933 154.23C244.833 153.811 245.904 154.115 246.449 154.945L267.794 187.426C268.224 188.08 268.233 188.925 267.816 189.588L66.4783 509.943C65.9252 510.823 64.7901 511.133 63.8667 510.656L22.3194 489.182C21.536 488.777 21.1103 487.907 21.2714 487.04L45.6732 355.758C45.8593 354.757 45.2634 353.776 44.2892 353.479L2.03112 340.618C0.929518 340.283 0.337847 339.089 0.738241 338.009L27.3274 266.314C27.7024 265.302 28.8118 264.771 29.8351 265.112L39.8506 268.45C40.7965 268.766 41.3657 269.729 41.185 270.71L35.1793 303.312C34.8894 304.886 36.4727 306.146 37.9409 305.51L79.5259 287.504C81.0007 286.866 82.5883 288.139 82.2845 289.718L59.4993 408.112C59.0817 410.281 61.9727 411.426 63.1537 409.558L194.642 201.601C195.726 199.887 193.864 197.834 192.053 198.746L130.386 229.792C128.784 230.598 127.013 229.052 127.595 227.356L186.463 55.9733C187.038 54.3015 185.32 52.7613 183.72 53.514L155.739 66.6815C154.768 67.1387 153.609 66.7472 153.113 65.7946L148.278 56.4966C147.829 55.6321 148.068 54.5694 148.844 53.9805Z" fill="#2CFF80"/>
</svg>
