<svg width="24" height="18" viewBox="0 0 24 18" fill="none" xmlns="http://www.w3.org/2000/svg">
<path d="M6.14648 15.5584H1.45898C1.29718 15.5584 1.16602 15.6953 1.16602 15.8641V16.4754C1.16731 17.3178 1.82224 18 2.62969 18H4.97344C5.78089 18 6.43582 17.3178 6.43711 16.4754V15.8641C6.43711 15.6962 6.30737 15.5597 6.14648 15.5584Z" fill="white"/>
<path d="M22.5363 15.5584H17.8594C17.6976 15.5584 17.5664 15.6953 17.5664 15.8641V16.4754C17.5677 17.3178 18.2226 18 19.0301 18H21.3738C22.1813 18 22.8362 17.3178 22.8375 16.4754V15.8641C22.8375 15.7815 22.8055 15.7024 22.7488 15.6449C22.6921 15.5873 22.6154 15.5561 22.5363 15.5584Z" fill="white"/>
<path fill-rule="evenodd" clip-rule="evenodd" d="M22.3008 7.61225L23.5711 8.9376C23.8446 9.2236 23.9988 9.61075 24 10.0148V12.8134C24.0006 13.2188 23.8467 13.6079 23.5721 13.8948C23.2976 14.1817 22.9249 14.3429 22.5363 14.3429H1.46367C0.656222 14.3429 0.00129295 13.6607 0 12.8183V9.76167C7.62692e-05 9.51912 0.0923743 9.28651 0.256641 9.11489L2.02617 7.27479C2.08272 7.21695 2.12703 7.1474 2.15625 7.07061L4.42383 1.15053C4.68909 0.454089 5.33562 -0.00223215 6.05391 1.21838e-05H18.1406C18.8594 -0.0027203 19.5063 0.454382 19.7707 1.15175L22.1719 7.40684C22.2011 7.4837 22.2449 7.55358 22.3008 7.61225ZM18.716 6.10106C18.8133 6.10123 18.9042 6.05079 18.9586 5.96657C19.0154 5.88425 19.0286 5.7776 18.9937 5.68292L17.8218 2.62628C17.7773 2.51036 17.6697 2.43436 17.55 2.43433H6.65152C6.53139 2.43386 6.42316 2.50994 6.37848 2.62628L5.2066 5.68292C5.17003 5.77659 5.18104 5.88317 5.2359 5.96657C5.29021 6.05079 5.38118 6.10123 5.47848 6.10106H18.716Z" fill="white"/>
<path d="M14.8149 9.2864C14.7862 9.23332 14.7291 9.19999 14.6669 9.2H12.2082L12.8295 6.51392C12.847 6.43959 12.8074 6.36377 12.735 6.33268C12.6625 6.30159 12.5773 6.32387 12.5312 6.38592L9.19787 10.8659C9.16093 10.9147 9.1557 10.9793 9.18437 11.033C9.21303 11.0867 9.27071 11.1203 9.33354 11.12H11.7922L11.1709 13.8048C11.1534 13.8791 11.193 13.9549 11.2655 13.986C11.3379 14.0171 11.4232 13.9948 11.4692 13.9328L14.8025 9.4528C14.8388 9.40394 14.8436 9.3397 14.8149 9.2864Z" fill="black"/>
</svg>
