<svg width="25" height="24" viewBox="0 0 25 24" fill="none" xmlns="http://www.w3.org/2000/svg">
    <path d="M22.5446 4.53601C22.1481 4.14563 21.5055 4.14563 21.109 4.53601L19.174 6.44201C19.1264 6.48903 19.0617 6.51546 18.9943 6.51546C18.9269 6.51546 18.8622 6.48903 18.8146 6.44201L16.3019 3.96701C16.2036 3.86888 16.2036 3.71114 16.3019 3.61301L18.237 1.71301C18.6348 1.32255 18.6359 0.688356 18.2395 0.29651C17.8431 -0.0953356 17.1992 -0.0964549 16.8014 0.29401L14.8664 2.20001C14.819 2.24697 14.7545 2.27337 14.6872 2.27337C14.62 2.27337 14.5555 2.24697 14.508 2.20001L14.038 1.73801C13.4433 1.15244 12.4793 1.15244 11.8847 1.73801L8.65524 4.91901C7.49327 6.07496 6.88531 7.66316 6.98315 9.28701C7.02701 10.2234 7.27309 11.1398 7.70498 11.975C7.75393 12.0712 7.73515 12.1875 7.65828 12.264L5.78722 14.112C5.58905 14.3073 5.58905 14.6238 5.78722 14.819L6.01158 15.041C6.05963 15.088 6.08666 15.1519 6.08666 15.2185C6.08666 15.2852 6.05963 15.3491 6.01158 15.396L2.41564 18.843V18.843C1.22734 20.0144 1.22734 21.9126 2.41564 23.084C3.62119 24.2159 5.51669 24.2159 6.72224 23.084L9.94965 19.905C10.0779 19.7785 10.2648 19.729 10.4401 19.7752C10.6155 19.8213 10.7525 19.9561 10.7995 20.1287C10.8466 20.3013 10.7967 20.4855 10.6684 20.612L8.96183 22.294C8.57709 22.6864 8.58259 23.3101 8.9742 23.6958C9.36581 24.0816 9.99901 24.087 10.3974 23.708L12.107 22.025C13.0904 21.0471 13.0862 19.4701 12.0977 18.4972C11.1091 17.5243 9.50815 17.5215 8.51615 18.491L5.28569 21.673C4.88377 22.0502 4.25208 22.0502 3.85016 21.673C3.46038 21.2869 3.45587 20.6646 3.84001 20.273V20.273L7.44305 16.813C7.54209 16.7176 7.70036 16.7176 7.7994 16.813L7.93341 16.945C8.13163 17.1402 8.45295 17.1402 8.65118 16.945L10.5273 15.1C10.6047 15.0237 10.7231 15.0051 10.8207 15.054C11.7529 15.5221 12.7836 15.7681 13.8299 15.772C15.3841 15.7882 16.8805 15.192 17.9862 14.116L21.2187 10.929C21.8132 10.3433 21.8132 9.39376 21.2187 8.80801L20.6096 8.20801C20.5618 8.16111 20.535 8.09742 20.535 8.03101C20.535 7.9646 20.5618 7.90091 20.6096 7.85401L22.5446 5.95001C22.9409 5.55951 22.9409 4.92651 22.5446 4.53601Z" fill="black"/>
    <path d="M16.2808 8.35398C16.2648 8.30362 16.2206 8.26552 16.1663 8.2552L14.0218 7.84737L15.016 5.64273C15.0438 5.58177 15.022 5.51006 14.9641 5.47134C14.9061 5.43261 14.828 5.4376 14.7774 5.48328L11.1156 8.77929C11.0751 8.81508 11.0597 8.86971 11.0756 8.92058C11.0916 8.97146 11.1363 9.00993 11.1911 9.02008L13.3356 9.42791L12.3415 11.6314C12.3138 11.6924 12.3356 11.7641 12.3935 11.8028C12.4515 11.8416 12.5296 11.8366 12.5802 11.7909L16.242 8.49489C16.2819 8.45893 16.2969 8.40453 16.2808 8.35398Z" fill="white"/>
</svg>