<svg width="26" height="23" viewBox="0 0 26 23" fill="none" xmlns="http://www.w3.org/2000/svg">
    <path fill-rule="evenodd" clip-rule="evenodd" d="M10.5604 20.5413C9.86526 20.4739 9.45252 20.5383 8.74002 20.7587C7.88636 21.0227 6.56731 22.1591 4.76136 22.1591C4.65996 22.1591 6.46591 20.7033 6.46591 19.6023L6.46591 19.2109C2.88688 17.3869 0.5 14.1093 0.5 10.3693C0.5 4.6425 6.09644 0 13 0C19.9036 0 25.5 4.6425 25.5 10.3693C25.5 16.0961 19.9036 20.7386 13 20.7386C12.1652 20.7386 11.3494 20.6707 10.5604 20.5413H10.5604Z" fill="#2AFF80"/>
    <path fill-rule="evenodd" clip-rule="evenodd" d="M10.5604 20.5413C9.86526 20.4739 9.45252 20.5383 8.74002 20.7587C7.88636 21.0227 6.56731 22.1591 4.76136 22.1591C4.65996 22.1591 6.46591 20.7033 6.46591 19.6023L6.46591 19.2109C2.88688 17.3869 0.5 14.1093 0.5 10.3693C0.5 4.6425 6.09644 0 13 0C19.9036 0 25.5 4.6425 25.5 10.3693C25.5 16.0961 19.9036 20.7386 13 20.7386C12.1652 20.7386 11.3494 20.6707 10.5604 20.5413H10.5604Z" fill="white"/>
</svg>
