<svg width="24" height="24" viewBox="0 0 24 24" fill="none" xmlns="http://www.w3.org/2000/svg">
<path d="M0.857143 5.14286C0.629814 5.14286 0.411797 5.05255 0.251051 4.89181C0.0903058 4.73106 0 4.51304 0 4.28571V0.857143C0 0.629814 0.0903058 0.411797 0.251051 0.251051C0.411797 0.0903058 0.629814 0 0.857143 0H4.28571C4.51304 0 4.73106 0.0903058 4.89181 0.251051C5.05255 0.411797 5.14286 0.629814 5.14286 0.857143C5.14286 1.08447 5.05255 1.30249 4.89181 1.46323C4.73106 1.62398 4.51304 1.71429 4.28571 1.71429H1.71429V4.28571C1.71429 4.51304 1.62398 4.73106 1.46323 4.89181C1.30249 5.05255 1.08447 5.14286 0.857143 5.14286Z" fill="black"/>
<path d="M4.28571 24H0.857143C0.629814 24 0.411797 23.9097 0.251051 23.749C0.0903058 23.5882 0 23.3702 0 23.1429V19.7143C0 19.487 0.0903058 19.269 0.251051 19.1082C0.411797 18.9475 0.629814 18.8572 0.857143 18.8572C1.08447 18.8572 1.30249 18.9475 1.46323 19.1082C1.62398 19.269 1.71429 19.487 1.71429 19.7143V22.2857H4.28571C4.51304 22.2857 4.73106 22.3761 4.89181 22.5368C5.05255 22.6975 5.14286 22.9156 5.14286 23.1429C5.14286 23.3702 5.05255 23.5882 4.89181 23.749C4.73106 23.9097 4.51304 24 4.28571 24Z" fill="black"/>
<path d="M23.1431 24H19.7146C19.4872 24 19.2692 23.9097 19.1085 23.749C18.9477 23.5882 18.8574 23.3702 18.8574 23.1429C18.8574 22.9156 18.9477 22.6975 19.1085 22.5368C19.2692 22.3761 19.4872 22.2857 19.7146 22.2857H22.286V19.7143C22.286 19.487 22.3763 19.269 22.537 19.1082C22.6978 18.9475 22.9158 18.8572 23.1431 18.8572C23.3705 18.8572 23.5885 18.9475 23.7492 19.1082C23.91 19.269 24.0003 19.487 24.0003 19.7143V23.1429C24.0003 23.3702 23.91 23.5882 23.7492 23.749C23.5885 23.9097 23.3705 24 23.1431 24Z" fill="black"/>
<path d="M23.1431 5.14286C22.9158 5.14286 22.6978 5.05255 22.537 4.89181C22.3763 4.73106 22.286 4.51304 22.286 4.28571V1.71429H19.7146C19.4872 1.71429 19.2692 1.62398 19.1085 1.46323C18.9477 1.30249 18.8574 1.08447 18.8574 0.857143C18.8574 0.629814 18.9477 0.411797 19.1085 0.251051C19.2692 0.0903058 19.4872 0 19.7146 0H23.1431C23.3705 0 23.5885 0.0903058 23.7492 0.251051C23.91 0.411797 24.0003 0.629814 24.0003 0.857143V4.28571C24.0003 4.51304 23.91 4.73106 23.7492 4.89181C23.5885 5.05255 23.3705 5.14286 23.1431 5.14286Z" fill="black"/>
<path d="M10.2856 11.143H3.42843C3.2011 11.143 2.98309 11.0527 2.82234 10.8919C2.6616 10.7312 2.57129 10.5131 2.57129 10.2858V3.42868C2.57129 3.20135 2.6616 2.98333 2.82234 2.82258C2.98309 2.66184 3.2011 2.57153 3.42843 2.57153H10.2856C10.5129 2.57153 10.7309 2.66184 10.8917 2.82258C11.0524 2.98333 11.1427 3.20135 11.1427 3.42868V10.2858C11.1427 10.5131 11.0524 10.7312 10.8917 10.8919C10.7309 11.0527 10.5129 11.143 10.2856 11.143ZM4.28557 9.42868H9.42843V4.28582H4.28557V9.42868Z" fill="black"/>
<path d="M10.2856 21.4286H3.42843C3.2011 21.4286 2.98309 21.3383 2.82234 21.1776C2.6616 21.0168 2.57129 20.7988 2.57129 20.5715V13.7143C2.57129 13.487 2.6616 13.269 2.82234 13.1082C2.98309 12.9475 3.2011 12.8572 3.42843 12.8572H10.2856C10.5129 12.8572 10.7309 12.9475 10.8917 13.1082C11.0524 13.269 11.1427 13.487 11.1427 13.7143V20.5715C11.1427 20.7988 11.0524 21.0168 10.8917 21.1776C10.7309 21.3383 10.5129 21.4286 10.2856 21.4286ZM4.28557 19.7143H9.42843V14.5715H4.28557V19.7143Z" fill="black"/>
<path d="M20.5717 11.143H13.7146C13.4872 11.143 13.2692 11.0527 13.1085 10.8919C12.9477 10.7312 12.8574 10.5131 12.8574 10.2858V3.42868C12.8574 3.20135 12.9477 2.98333 13.1085 2.82258C13.2692 2.66184 13.4872 2.57153 13.7146 2.57153H20.5717C20.799 2.57153 21.0171 2.66184 21.1778 2.82258C21.3385 2.98333 21.4289 3.20135 21.4289 3.42868V10.2858C21.4289 10.5131 21.3385 10.7312 21.1778 10.8919C21.0171 11.0527 20.799 11.143 20.5717 11.143ZM14.5717 9.42868H19.7146V4.28582H14.5717V9.42868Z" fill="black"/>
<path d="M20.5718 18H17.1433C16.9159 18 16.6979 17.9097 16.5372 17.749C16.3764 17.5882 16.2861 17.3702 16.2861 17.1429V13.7143C16.2861 13.487 16.3764 13.269 16.5372 13.1082C16.6979 12.9475 16.9159 12.8572 17.1433 12.8572H20.5718C20.7992 12.8572 21.0172 12.9475 21.1779 13.1082C21.3387 13.269 21.429 13.487 21.429 13.7143V17.1429C21.429 17.3702 21.3387 17.5882 21.1779 17.749C21.0172 17.9097 20.7992 18 20.5718 18ZM18.0004 16.2857H19.7147V14.5715H18.0004V16.2857Z" fill="black"/>
<path d="M17.1431 21.4285H13.7146C13.4872 21.4285 13.2692 21.3382 13.1085 21.1775C12.9477 21.0167 12.8574 20.7987 12.8574 20.5714V17.1428C12.8574 16.9155 12.9477 16.6974 13.1085 16.5367C13.2692 16.3759 13.4872 16.2856 13.7146 16.2856H17.1431C17.3705 16.2856 17.5885 16.3759 17.7492 16.5367C17.91 16.6974 18.0003 16.9155 18.0003 17.1428V20.5714C18.0003 20.7987 17.91 21.0167 17.7492 21.1775C17.5885 21.3382 17.3705 21.4285 17.1431 21.4285ZM14.5717 19.7142H16.286V17.9999H14.5717V19.7142Z" fill="black"/>
<path d="M7.28557 5.57153H6.42843C5.95504 5.57153 5.57129 5.95529 5.57129 6.42868V7.28582C5.57129 7.75921 5.95504 8.14296 6.42843 8.14296H7.28557C7.75896 8.14296 8.14272 7.75921 8.14272 7.28582V6.42868C8.14272 5.95529 7.75896 5.57153 7.28557 5.57153Z" fill="black"/>
<path d="M7.28557 15.8572H6.42843C5.95504 15.8572 5.57129 16.2409 5.57129 16.7143V17.5715C5.57129 18.0449 5.95504 18.4286 6.42843 18.4286H7.28557C7.75896 18.4286 8.14272 18.0449 8.14272 17.5715V16.7143C8.14272 16.2409 7.75896 15.8572 7.28557 15.8572Z" fill="black"/>
<path d="M17.5717 5.57153H16.7146C16.2412 5.57153 15.8574 5.95529 15.8574 6.42868V7.28582C15.8574 7.75921 16.2412 8.14296 16.7146 8.14296H17.5717C18.0451 8.14296 18.4289 7.75921 18.4289 7.28582V6.42868C18.4289 5.95529 18.0451 5.57153 17.5717 5.57153Z" fill="black"/>
</svg>
