<svg width="20" height="20" viewBox="0 0 20 20" fill="none" xmlns="http://www.w3.org/2000/svg">
    <path fill-rule="evenodd" clip-rule="evenodd" d="M0 7.74529C0 12.0229 3.46768 15.4906 7.74529 15.4906C9.61948 15.4906 11.3382 14.8249 12.6779 13.7171C12.705 13.7579 12.7366 13.7966 12.7726 13.8326L18.7204 19.7805C19.0132 20.0732 19.4877 20.0732 19.7805 19.7805C20.0732 19.4877 20.0732 19.0132 19.7805 18.7204L13.8326 12.7726C13.7966 12.7366 13.7579 12.705 13.7171 12.6779C14.8249 11.3382 15.4906 9.61948 15.4906 7.74529C15.4906 3.46768 12.0229 0 7.74529 0C3.46768 0 0 3.46768 0 7.74529ZM13.9915 7.74529C13.9915 11.195 11.195 13.9915 7.74529 13.9915C4.29561 13.9915 1.49909 11.195 1.49909 7.74529C1.49909 4.29561 4.29561 1.49909 7.74529 1.49909C11.195 1.49909 13.9915 4.29561 13.9915 7.74529Z" fill="#A6FFCA"/>
</svg>
